<?xml version="1.0" encoding="utf-8"?>
<!-- Generator: Adobe Illustrator 16.0.0, SVG Export Plug-In . SVG Version: 6.00 Build 0)  -->
<!DOCTYPE svg PUBLIC "-//W3C//DTD SVG 1.1//EN" "http://www.w3.org/Graphics/SVG/1.1/DTD/svg11.dtd">
<svg version="1.1" id="Laag_1" xmlns="http://www.w3.org/2000/svg" xmlns:xlink="http://www.w3.org/1999/xlink" x="0px" y="0px"
	 width="2924px" height="768px" viewBox="0 0 2924 768" enable-background="new 0 0 2924 768" xml:space="preserve">
<rect fill="none" width="2924" height="768"/>
<g>
	<g>
		<g>
			<path fill="#181716" d="M352.434,102.208c-153.195,0-277.356,124.176-277.377,277.403
				c0.021,153.209,124.182,277.385,277.377,277.385c153.277,0,277.437-124.176,277.447-277.385
				C629.871,226.384,505.71,102.208,352.434,102.208 M522.331,549.502c-43.533,43.532-103.467,70.353-169.897,70.375
				c-66.372-0.022-126.325-26.843-169.868-70.375c-43.48-43.524-70.374-103.446-70.374-169.891
				c0-66.407,26.894-126.341,70.374-169.88c43.543-43.485,103.496-70.349,169.868-70.359c66.43,0.01,126.364,26.874,169.897,70.359
				c43.533,43.539,70.376,103.473,70.376,169.88C592.707,446.056,565.864,505.978,522.331,549.502"/>
			<path fill="#181716" d="M533.53,294.812c-39.617,1.015-45.289-0.148-45.289-0.148c-1.184-0.172-6.916-0.528-8.236,2.133
				c-4.778,9.522-72.252,114.227-72.252,114.227c-5.722,9.804-8.473-1.866-8.473-1.866c0.493-4.829-15.222-105.355-15.222-105.355
				c-1.182-8.949-6.03-5.82-6.03-5.82c-9.189,2.405-58.97-2.149-58.97-2.149c-43.652-4.565-57.899,7.702-63.39,11.527
				c-8.874,6.11-17.107,18.685-17.376,31.869c-0.038,16.647,5.485,25.927,17.863,33.548c22.699,11.933,41.941,2.503,41.941,2.503
				c23.733-14.266,6.976-27.239,6.976-27.239c-10.789-6.368-23.763,9.674-23.763,9.674c-4.979,7.71-14.456,4.301-14.456,4.301
				c-14.395-3.028-13.539-22.23-13.539-22.23c0.278-26.577,35.087-38.425,66.956-35.011c31.919,3.358,25.631,21.986,25.162,28.265
				c-0.544,6.269-21.556,72.023-21.556,72.023c-25.324,83.836-83.11,94.227-113.796,85.307
				c-30.708-8.981-32.566-41.106-23.446-58.97c8.693-17.007,30.478-25.59,47.377-8.734c16.906,16.978,26.553,4.869,26.553,4.869
				c11.834-19.372-13.52-27.073-13.52-27.073c-22.202-5.143-82.126-0.187-82.126,53.609c0,17.146,13.323,52.93,68.625,52.211
				c103.537-1.32,125.371-161.837,125.371-161.837c0.744-3.496,1.53-3.407,3.327-3.09c1.75,0.318,2.227,5.939,2.227,5.939
				l14.247,108.525l16.749-0.328c0.694-1.202,76.871-118.536,80.329-124.119c2.333-3.646,3.435-1.013,3.435,0.93
				c-0.098,1.712-0.932,3.935-0.932,3.935s-21.239,88.874-23.754,97.118c-2.524,8.16-7.876,13.385-12.596,13.385
				c-4.719,0-4.878,1.538-5.88,5.223c-1.034,3.687,0.189,3.358,0.189,3.358c9.883-0.854,61.84,0.17,64.343,0.17
				c2.544,0,1.37-2.217,2.224-5.195c0.835-3.06-0.663-3.183-0.663-3.183l-6.081-0.545c-14.893-3.715-8.862-20.787-8.862-20.787
				s19.77-88.9,23.484-104.128c4.344-17.889,19.025-18.387,20.961-18.325c5.227,0.286,5.276-2.537,5.276-2.537
				s-0.118-0.873,0.059-3.129C537.333,294.03,537.236,294.712,533.53,294.812"/>
		</g>
		<g>
			<path fill="#181716" d="M738.286,636.509v-75.995l9.725-3.589v79.584H738.286z M770.476,636.509
				c-5.036-5.146-14.308-18.222-20.686-27.938l19.453-22.917H782.1l-21.468,21.349l22.468,29.507H770.476z"/>
			<polygon fill="#181716" points="837.64,635.271 828.474,637.959 819.757,610.119 808.693,635.155 800.307,637.959 784.1,585.653 
				794.385,585.653 806.123,625.44 816.744,600.301 812.267,585.653 822.666,585.653 833.951,625.44 846.691,585.653 
				855.743,585.653 			"/>
			<path fill="#181716" d="M904.248,636.509c-2.234,1.009-4.91,1.556-6.365,1.556c-2.13,0-7.609-0.219-9.166-6.128
				c-3.248,3.112-8.611,6.128-15.764,6.128c-7.157,0-12.52-5.13-12.52-12.063c0-8.494,5.7-12.856,12.414-14.758l15.984-4.46v-7.157
				c0-4.806-1.35-8.492-6.712-8.492c-2.674,0-5.922,2.128-7.376,3.57l-7.155,6.708l-5.805-5.71
				c4.35-5.467,13.181-11.945,24.025-11.945c8.272,0,12.855,4.129,12.738,11.286l-0.441,29.502c-0.116,6.268,1.79,5.363,7.933,6.145
				L904.248,636.509z M888.831,612.925l-11.062,3.244c-3.585,1.002-7.831,2.455-7.831,7.598c0,3.687,1.79,6.924,6.377,6.924
				c5.143,0,10.052-1.896,12.516-3.574V612.925z"/>
			<polygon fill="#181716" points="918.554,560.508 918.554,636.502 928.28,636.502 928.28,556.933 			"/>
			<path fill="#181716" d="M951.97,570.678c-3.907,0-6.596-2.567-6.596-6.152c0-3.57,2.689-6.135,6.596-6.135
				c3.792,0,6.598,2.564,6.598,6.135C958.568,568.223,955.762,570.678,951.97,570.678 M946.607,636.502v-49.179l9.726-3.57v52.749
				H946.607z"/>
			<path fill="#181716" d="M996.562,593.365h-11.74v27.841c0,6.805,2.129,8.93,6.818,8.93c3.469,0,6.039-1.22,7.935-2.24
				l-2.233,8.502c-3.35,0.791-5.922,1.679-9.388,1.679c-9.052,0-12.741-4.248-12.741-15.325v-29.386h-10.168l3.689-7.704h6.479
				v-10.507l10.728-4.699l-1.119,15.206h15.09L996.562,593.365z"/>
			<path fill="#181716" d="M1049.091,636.509c-2.233,1.009-4.92,1.556-6.373,1.556c-2.119,0-7.6-0.219-9.158-6.128
				c-3.246,3.112-8.608,6.128-15.766,6.128c-7.152,0-12.517-5.13-12.517-12.063c0-8.494,5.701-12.856,12.403-14.758l15.984-4.46
				v-7.157c0-4.806-1.337-8.492-6.699-8.492c-2.687,0-5.923,2.128-7.376,3.57l-7.157,6.708l-5.816-5.71
				c4.362-5.467,13.194-11.945,24.037-11.945c8.272,0,12.855,4.129,12.739,11.286l-0.443,29.502
				c-0.117,6.268,1.779,5.363,7.936,6.145L1049.091,636.509z M1033.665,612.925l-11.062,3.244c-3.572,1.002-7.82,2.455-7.82,7.598
				c0,3.687,1.792,6.924,6.366,6.924c5.143,0,10.062-1.896,12.516-3.574V612.925z"/>
			<path fill="#181716" d="M1085.301,593.365h-11.74v27.841c0,6.805,2.129,8.93,6.818,8.93c3.468,0,6.039-1.22,7.936-2.24
				l-2.233,8.502c-3.352,0.791-5.922,1.679-9.388,1.679c-9.052,0-12.741-4.248-12.741-15.325v-29.386h-10.168l3.689-7.704h6.479
				v-10.507l10.725-4.699l-1.116,15.206h15.09L1085.301,593.365z"/>
			<path fill="#181716" d="M1103.847,570.678c-3.907,0-6.596-2.567-6.596-6.152c0-3.57,2.689-6.135,6.596-6.135
				c3.805,0,6.598,2.564,6.598,6.135C1110.445,568.223,1107.652,570.678,1103.847,570.678 M1098.484,636.502v-49.179l9.726-3.57
				v52.749H1098.484z"/>
			<path fill="#181716" d="M1164.654,609.349l-32.75,1.234v2.456c0,8.931,5.477,16.646,16.1,16.646
				c5.363,0,10.726-1.104,15.311-3.467l-2.468,9.054c-3.465,1.672-9.607,2.804-15.194,2.804c-15.311,0-23.58-11.857-23.58-26.608
				c0-15.302,9.272-27.595,24.36-27.595c11.623,0,19.001,5.583,19.001,17.776C1165.435,603.661,1165.095,607.335,1164.654,609.349
				 M1146.212,590.234c-8.388,0-13.297,7.613-13.867,13.972l22.582-0.998c0.451-1.678,0.557-3.25,0.557-4.248
				C1155.484,593.587,1151.795,590.234,1146.212,590.234"/>
			<path fill="#181716" d="M1212.592,566.652l-9.272-3.57h-1.896c-4.922,0-10.624,5.365-10.624,15.647v7.7h12.741l-2.571,7.727
				h-10.17v42.353h-9.725v-42.353h-8.945l2.582-7.727h6.363v-4.128c0-15.323,7.937-26.048,22.584-26.048
				c5.698,0,9.387,1.241,12.959,3.023L1212.592,566.652z"/>
			<rect x="1304.03" y="547.312" fill="#181716" width="8.492" height="118.482"/>
			<path fill="#181716" d="M1447.251,598.838l-8.271-8.038h-2.014c-6.479,0-14.181,6.82-14.181,19.325
				c0,11.516,4.57,19.559,15.854,19.559c5.598,0,10.183-1.886,13.868-3.911l-1.907,8.284c-3.79,2.786-9.946,4.013-14.751,4.013
				c-14.751,0-23.362-10.271-23.362-26.271c0-17.194,11.518-27.921,24.818-27.921c6.816,0,14.087,2.557,17.32,10.038
				L1447.251,598.838z"/>
			<path fill="#181716" d="M1482.015,638.068c-12.626,0-21.351-9.494-21.351-24.361c0-19.792,10.168-29.96,26.816-29.96
				c12.753,0,21.582,9.833,21.582,24.364C1509.062,627.888,1497.883,638.068,1482.015,638.068 M1484.469,590.58
				c-7.155,0-13.52,7.816-13.52,19.66c0,13.751,4.025,21.013,14.076,21.013c7.155,0,13.751-7.816,13.751-19.334
				C1498.776,597.956,1494.193,590.58,1484.469,590.58"/>
			<path fill="#181716" d="M1584.272,636.509v-31.183c0-10.064-2.119-13.749-10.392-13.749c-3.908,0-8.828,2.802-10.619,4.702
				c0.114,0.881,0.114,1.902,0.114,2.896v37.333h-9.725v-31.52c0-10.052-2.119-13.738-10.391-13.738
				c-4.023,0-8.945,3.348-10.619,5.255v40.003h-9.729V586.55l9.729-2.572v6.364c5.142-4.909,11.062-6.471,16.204-6.471
				c5.922,0,10.505,2.121,12.856,6.936h0.335c6.028-5.374,12.287-6.606,17.43-6.606c8.947,0,14.53,4.699,14.53,15.308v37.001
				H1584.272z"/>
			<path fill="#181716" d="M1673.682,636.509v-31.183c0-10.064-2.13-13.749-10.401-13.749c-3.907,0-8.829,2.802-10.611,4.702
				c0.106,0.881,0.106,1.902,0.106,2.896v37.333h-9.728v-31.52c0-10.052-2.116-13.738-10.389-13.738
				c-4.013,0-8.935,3.348-10.61,5.255v40.003h-9.726V586.55l9.726-2.572v6.364c5.142-4.909,11.066-6.471,16.208-6.471
				c5.918,0,10.505,2.121,12.854,6.936h0.326c6.038-5.374,12.299-6.606,17.441-6.606c8.933,0,14.528,4.699,14.528,15.308v37.001
				H1673.682z"/>
			<path fill="#181716" d="M1733.022,638.969v-7.388c-4.701,3.933-11.064,6.487-16.986,6.487c-8.945,0-14.309-5.362-14.309-16.427
				v-35.098l9.726-2.795v32.087c0,11.393,1.78,14.857,9.831,14.857c3.246,0,8.829-2.453,11.738-5.259v-38.999l9.518-2.687v51.646
				L1733.022,638.969z"/>
			<path fill="#181716" d="M1792.148,636.509v-31.52c0-10.052-2.118-13.738-10.403-13.738c-4.013,0-9.491,3.348-11.166,5.255v40.003
				h-9.729V586.55l9.729-2.572v6.364c5.143-4.909,11.611-6.471,16.761-6.471c8.938,0,14.521,4.689,14.521,15.305v37.333H1792.148z"
				/>
			<path fill="#181716" d="M1825.558,570.678c-3.909,0-6.586-2.567-6.586-6.152c0-3.57,2.677-6.135,6.586-6.135
				c3.792,0,6.598,2.564,6.598,6.135C1832.155,568.223,1829.35,570.678,1825.558,570.678 M1820.192,636.502v-49.179l9.728-3.57
				v52.749H1820.192z"/>
			<path fill="#181716" d="M1878.536,598.838l-8.261-8.038h-2.023c-6.469,0-14.195,6.82-14.195,19.325
				c0,11.516,4.583,19.559,15.871,19.559c5.583,0,10.179-1.886,13.865-3.911l-1.907,8.284c-3.792,2.786-9.945,4.013-14.741,4.013
				c-14.752,0-23.36-10.271-23.36-26.271c0-17.194,11.507-27.921,24.815-27.921c6.805,0,14.066,2.557,17.311,10.038
				L1878.536,598.838z"/>
			<path fill="#181716" d="M1935.76,636.509c-2.233,1.009-4.922,1.556-6.375,1.556c-2.119,0-7.599-0.219-9.171-6.128
				c-3.243,3.112-8.606,6.128-15.751,6.128c-7.155,0-12.518-5.13-12.518-12.063c0-8.494,5.712-12.856,12.401-14.758l15.986-4.46
				v-7.157c0-4.806-1.339-8.492-6.702-8.492c-2.689,0-5.933,2.128-7.386,3.57l-7.157,6.708l-5.804-5.71
				c4.373-5.467,13.189-11.945,24.032-11.945c8.265,0,12.856,4.129,12.741,11.286l-0.44,29.502
				c-0.118,6.268,1.791,5.363,7.933,6.145L1935.76,636.509z M1920.333,612.925l-11.064,3.244c-3.57,1.002-7.818,2.455-7.818,7.598
				c0,3.687,1.79,6.924,6.364,6.924c5.141,0,10.063-1.896,12.519-3.574V612.925z"/>
			<path fill="#181716" d="M1971.965,593.365h-11.729v27.841c0,6.805,2.119,8.93,6.809,8.93c3.464,0,6.047-1.22,7.945-2.24
				l-2.233,8.502c-3.351,0.791-5.935,1.679-9.401,1.679c-9.049,0-12.738-4.248-12.738-15.325v-29.386h-10.157l3.688-7.704h6.469
				v-10.507l10.726-4.699l-1.106,15.206h15.08L1971.965,593.365z"/>
			<path fill="#181716" d="M1990.515,570.678c-3.909,0-6.583-2.567-6.583-6.152c0-3.57,2.674-6.135,6.583-6.135
				c3.795,0,6.599,2.564,6.599,6.135C1997.113,568.223,1994.31,570.678,1990.515,570.678 M1985.152,636.502v-49.179l9.726-3.57
				v52.749H1985.152z"/>
			<path fill="#181716" d="M2051.314,609.349l-32.741,1.234v2.456c0,8.931,5.469,16.646,16.092,16.646
				c5.363,0,10.726-1.104,15.311-3.467l-2.456,9.054c-3.468,1.672-9.61,2.804-15.207,2.804c-15.31,0-23.579-11.857-23.579-26.608
				c0-15.302,9.271-27.595,24.359-27.595c11.624,0,19.009,5.583,19.009,17.776C2052.102,603.661,2051.756,607.335,2051.314,609.349
				 M2032.873,590.234c-8.378,0-13.298,7.613-13.854,13.972l22.578-0.998c0.443-1.678,0.56-3.25,0.56-4.248
				C2042.157,593.587,2038.469,590.234,2032.873,590.234"/>
			<path fill="#181716" d="M2099.262,566.652l-9.271-3.57h-1.895c-4.922,0-10.623,5.365-10.623,15.647v7.7h12.738l-2.581,7.727
				h-10.157v42.353h-9.729v-42.353h-8.944l2.585-7.727h6.359v-4.128c0-15.323,7.938-26.048,22.572-26.048
				c5.702,0,9.389,1.241,12.961,3.023L2099.262,566.652z"/>
			<rect x="2190.691" y="547.312" fill="#181716" width="8.493" height="118.482"/>
			<path fill="#181716" d="M2303.641,636.509v-75.995l9.715-3.589v79.584H2303.641z M2335.832,636.509
				c-5.036-5.146-14.309-18.222-20.686-27.938l19.454-22.917h12.843l-21.453,21.349l22.466,29.507H2335.832z"/>
			<polygon fill="#181716" points="2358.069,560.508 2358.069,636.502 2367.794,636.502 2367.794,556.933 			"/>
			<path fill="#181716" d="M2425.464,636.509c-2.233,1.009-4.922,1.556-6.376,1.556c-2.129,0-7.598-0.219-9.17-6.128
				c-3.244,3.112-8.607,6.128-15.751,6.128c-7.155,0-12.519-5.13-12.519-12.063c0-8.494,5.713-12.856,12.402-14.758l15.986-4.46
				v-7.157c0-4.806-1.34-8.492-6.702-8.492c-2.688,0-5.933,2.128-7.386,3.57l-7.158,6.708l-5.805-5.71
				c4.375-5.467,13.191-11.945,24.035-11.945c8.264,0,12.854,4.129,12.74,11.286l-0.453,29.502
				c-0.114,6.268,1.791,5.363,7.945,6.145L2425.464,636.509z M2410.037,612.925l-11.064,3.244c-3.572,1.002-7.818,2.455-7.818,7.598
				c0,3.687,1.79,6.924,6.363,6.924c5.142,0,10.065-1.896,12.52-3.574V612.925z"/>
			<path fill="#181716" d="M2471.056,636.509v-31.52c0-10.052-2.119-13.738-10.378-13.738c-4.039,0-9.519,3.348-11.191,5.255v40.003
				h-9.717V586.55l9.717-2.572v6.364c5.143-4.909,11.631-6.471,16.776-6.471c8.933,0,14.518,4.689,14.518,15.305v37.333H2471.056z"
				/>
			<path fill="#181716" d="M2521.016,593.365h-11.73v27.841c0,6.805,2.119,8.93,6.808,8.93c3.467,0,6.039-1.22,7.944-2.24
				l-2.231,8.502c-3.363,0.791-5.933,1.679-9.401,1.679c-9.05,0-12.738-4.248-12.738-15.325v-29.386h-10.157l3.676-7.704h6.481
				v-10.507l10.726-4.699l-1.106,15.206h15.08L2521.016,593.365z"/>
			<path fill="#181716" d="M2581.148,594.266h-6.261c0.221,1.221,0.221,2.574,0.221,3.691c0,14.311-10.052,21.787-22.243,21.787
				c-2.687,0-5.143-0.107-7.701-1.013c-1.57,1.134-3.351,3.467-3.351,5.702c0,3.922,4.678,5.6,10.273,5.6h12.063
				c7.05,0,14.194,3.011,14.194,11.619c0,10.624-12.075,19.997-28.714,19.997c-11.179,0-21.021-3.906-21.021-13.181
				c0-5.803,4.699-10.181,11.191-12.518c-4.479-1.011-6.376-5.143-6.376-7.829c0-4.585,3.467-8.257,7.586-10.844
				c-5.689-2.454-10.505-7.715-10.505-14.97c0-13.405,11.527-18.432,23.813-18.432c5.367,0,10.624,1.458,13.299,2.456h16.322
				L2581.148,594.266z M2558.566,638.625l-16.31-0.556c-1.454,0.895-4.597,3.685-4.597,7.934c0,7.71,8.061,9.287,14.984,9.287
				c10.05,0,15.881-5.249,15.881-10.953C2568.525,639.301,2564.709,638.848,2558.566,638.625 M2563.93,592.478
				c-3.023-1.237-5.479-2.134-9.713-2.134c-7.726,0-13.639,3.806-13.639,11.965c0,6.71,5.143,10.959,12.403,10.959
				c8.388,0,12.075-6.376,12.075-12.3C2565.057,597.722,2564.836,595.266,2563.93,592.478"/>
			<path fill="#181716" d="M2630.207,609.349l-32.762,1.234v2.456c0,8.931,5.48,16.646,16.102,16.646
				c5.363,0,10.728-1.104,15.311-3.467l-2.455,9.054c-3.457,1.672-9.621,2.804-15.205,2.804c-15.297,0-23.582-11.857-23.582-26.608
				c0-15.302,9.284-27.595,24.373-27.595c11.623,0,19,5.583,19,17.776C2630.988,603.661,2630.648,607.335,2630.207,609.349
				 M2611.755,590.234c-8.376,0-13.295,7.613-13.842,13.972l22.559-0.998c0.462-1.678,0.567-3.25,0.567-4.248
				C2621.039,593.587,2617.351,590.234,2611.755,590.234"/>
			<path fill="#181716" d="M2668.98,596.833l-4.805-3.469c-2.908,0-7.271,5.923-9.168,8.715v34.431h-9.727v-49.961l9.727-2.795
				v10.844c4.921-8.492,8.83-10.726,13.312-10.726c3.909,0,5.803,1.782,7.596,4.014L2668.98,596.833z"/>
			<path fill="#181716" d="M2688.092,570.678c-3.906,0-6.595-2.567-6.595-6.152c0-3.57,2.688-6.135,6.595-6.135
				c3.796,0,6.599,2.564,6.599,6.135C2694.69,568.223,2691.888,570.678,2688.092,570.678 M2682.73,636.502v-49.179l9.717-3.57
				v52.749H2682.73z"/>
			<path fill="#181716" d="M2741.064,598.838l-8.262-8.038h-2.013c-6.493,0-14.193,6.82-14.193,19.325
				c0,11.516,4.571,19.559,15.868,19.559c5.584,0,10.166-1.886,13.844-3.911l-1.895,8.284c-3.793,2.786-9.938,4.013-14.74,4.013
				c-14.754,0-23.364-10.271-23.364-26.271c0-17.194,11.51-27.921,24.816-27.921c6.819,0,14.08,2.557,17.313,10.038
				L2741.064,598.838z"/>
			<path fill="#181716" d="M2790.246,636.509v-31.52c0-10.052-2.118-13.738-10.403-13.738c-4.013,0-9.493,3.348-11.166,5.255v40.003
				h-9.728v-77.122l9.728-2.562v33.517c5.143-4.909,11.611-6.471,16.761-6.471c8.938,0,14.521,4.689,14.521,15.305v37.333H2790.246z
				"/>
			<path fill="#181716" d="M2840.206,593.365h-11.738v27.841c0,6.805,2.114,8.93,6.815,8.93c3.469,0,6.027-1.22,7.938-2.24
				l-2.236,8.502c-3.352,0.791-5.922,1.679-9.388,1.679c-9.051,0-12.741-4.248-12.741-15.325v-29.386h-10.168l3.688-7.704h6.48
				v-10.507l10.729-4.699l-1.116,15.206h15.088L2840.206,593.365z"/>
		</g>
		<g>
			<polygon fill="#181716" points="837.838,455.987 837.838,372.42 799.367,423.105 760.687,371.188 760.687,455.987 
				735.45,455.987 735.45,339.123 723.036,323.192 758.201,323.192 802.882,381.938 848.591,323.192 866.177,323.192 
				866.177,455.987 			"/>
			<path fill="#181716" d="M990.293,455.987l-8.068-22.762h-45.915l-8.068,22.762h-28.131l46.744-120.796l-4.966-12.207h30.828
				l48.396,133.003H990.293z M959.478,369.108l-15.929,43.863h31.441L959.478,369.108z"/>
			<path fill="#181716" d="M1129.098,455.987l-30.818-50.675h-14.89v50.675h-28.342V325.671c14.27-2.479,24.204-4.549,41.158-4.549
				c27.926,0,51.508,12.423,51.508,39.518c0,18.819-13.647,30.805-24.203,36.395l40.335,58.953H1129.098z M1092.69,343.259h-9.301
				v42.401h23.58c6.617-5.161,12.206-12.818,12.206-23.373C1119.175,351.533,1114,343.259,1092.69,343.259"/>
			<polygon fill="#181716" points="1277.214,346.979 1244.114,346.979 1244.114,455.986 1215.578,455.986 1215.578,346.979 
				1180.205,346.979 1180.205,323.191 1284.867,323.191 			"/>
			<polygon fill="#181716" points="1396.78,455.987 1396.78,398.905 1344.859,398.905 1344.859,455.987 1316.52,455.987 
				1316.52,323.192 1344.859,323.192 1344.859,375.528 1396.78,375.528 1396.78,323.192 1425.119,323.192 1425.119,455.987 			"/>
			<path fill="#181716" d="M1549.231,455.987l-8.065-22.762h-45.919l-8.056,22.762h-28.131l46.744-120.796l-4.966-12.207h30.828
				l48.394,133.003H1549.231z M1518.425,369.108l-15.927,43.863h31.438L1518.425,369.108z"/>
			<path fill="#181716" d="M1724.658,458.887c-16.342,0-36.612-2.904-47.162-6.199V325.886c12.819-2.694,28.538-4.553,44.26-4.553
				c27.926,0,48.622,12.412,48.622,34.748c0,14.696-8.493,24.193-18.427,29.377c15.108,5.369,24.213,16.955,24.213,33.299
				C1776.164,444.402,1754.855,458.887,1724.658,458.887 M1719.071,343.464h-13.231v37.028h25.436
				c3.94-2.903,9.726-11.581,9.726-20.48C1741.001,350.702,1735.411,343.464,1719.071,343.464 M1718.654,400.131h-12.814v34.136
				c3.1,0.831,9.299,2.076,16.329,2.076c15.732,0,24.205-6.42,24.205-19.234C1746.374,405.102,1736.034,400.131,1718.654,400.131"/>
			<path fill="#181716" d="M1875.873,458.672c-39.714,0-66.188-27.511-66.188-68.874c0-41.581,26.277-68.875,66.188-68.875
				c39.715,0,66.189,27.294,66.189,68.875C1942.063,431.161,1915.588,458.672,1875.873,458.672 M1875.873,344.494
				c-23.175,0-36.407,18.205-36.407,45.304c0,27.096,13.232,45.299,36.407,45.299c22.96,0,36.398-18.203,36.398-45.299
				C1912.271,362.699,1898.833,344.494,1875.873,344.494"/>
			<path fill="#181716" d="M2035.36,458.888c-35.579,0-53.569-17.371-53.569-53.787v-81.91h28.328v80.673
				c0,19.642,8.899,31.848,25.241,31.848c19.444,0,26.888-11.99,26.888-28.335V323.19h25.229v81.495
				C2087.477,437.784,2068.876,458.888,2035.36,458.888"/>
			<polygon fill="#181716" points="2256.081,454.75 2232.49,459.304 2210.361,389.796 2181.823,454.529 2160.931,459.5 
				2119.566,323.192 2149.14,323.192 2176.234,412.338 2200.229,358.148 2189.061,323.192 2218.854,323.192 2247.184,412.972 
				2276.133,323.192 2302.816,323.192 			"/>
			<polygon fill="#181716" points="2417.431,346.979 2384.332,346.979 2384.332,455.986 2355.795,455.986 2355.795,346.979 
				2320.426,346.979 2320.426,323.191 2425.084,323.191 			"/>
			<polygon fill="#181716" points="2532.034,455.987 2456.741,455.987 2456.741,323.192 2537.418,323.192 2529.763,345.751 
				2485.082,345.751 2485.082,377.592 2528.52,377.592 2521.071,399.929 2485.082,399.929 2485.082,432.82 2540.307,432.82 			"/>
			<path fill="#181716" d="M2653.672,455.987l-8.07-22.762h-45.914l-8.068,22.762h-28.131l46.734-120.796l-4.956-12.207h30.819
				l48.404,133.003H2653.672z M2622.842,369.108l-15.916,43.863h31.439L2622.842,369.108z"/>
			<polygon fill="#181716" points="2832.603,323.193 2786.883,381.937 2742.207,323.193 2707.036,323.193 2719.459,339.124 
				2719.459,455.976 2744.689,455.976 2744.689,371.186 2783.366,423.106 2821.838,372.421 2821.838,455.976 2850.19,455.976 
				2850.19,323.193 			"/>
		</g>
	</g>
</g>
</svg>
