<?xml version="1.0" standalone="no"?>
<!DOCTYPE svg PUBLIC "-//W3C//DTD SVG 20010904//EN"
 "http://www.w3.org/TR/2001/REC-SVG-20010904/DTD/svg10.dtd">
<svg version="1.0" xmlns="http://www.w3.org/2000/svg"
 width="80.000000pt" height="80.000000pt" viewBox="0 0 80.000000 80.000000"
 preserveAspectRatio="xMidYMid meet">
<metadata>
Created by potrace 1.14, written by Peter Selinger 2001-2017
</metadata>
<g transform="translate(0.000000,80.000000) scale(0.100000,-0.100000)"
fill="#000000" stroke="none">
<path d="M275 769 c-113 -39 -191 -116 -240 -236 -36 -86 -31 -203 12 -294 39
-83 109 -153 193 -193 58 -27 75 -30 160 -30 82 -1 103 3 152 26 148 69 232
192 237 349 9 267 -260 465 -514 378z m245 -54 c77 -26 169 -118 195 -195 45
-133 18 -257 -78 -357 -91 -95 -250 -125 -369 -71 -78 36 -132 89 -170 166
-28 56 -32 75 -32 141 2 239 224 394 454 316z"/>
<path d="M267 500 c-29 -23 -36 -60 -14 -78 35 -30 96 -20 83 13 -6 16 -8 16
-30 2 -24 -16 -46 -7 -46 18 0 39 101 67 123 34 13 -20 -22 -140 -55 -189 -43
-63 -136 -77 -160 -25 -23 51 32 101 69 64 7 -7 19 -9 28 -5 30 11 -3 36 -46
36 -50 0 -79 -27 -79 -75 0 -27 6 -39 27 -52 35 -23 101 -23 136 0 42 27 91
117 101 182 4 28 16 28 17 -1 1 -29 11 -102 18 -132 4 -14 39 27 85 98 31 47
56 83 56 80 0 -23 -42 -156 -50 -158 -24 -8 -7 -17 35 -18 41 -2 61 9 34 18
-18 6 19 169 43 191 20 17 19 17 -20 17 -40 0 -41 -1 -93 -84 -47 -75 -63 -91
-65 -68 -2 29 -16 142 -17 143 -1 0 -36 3 -77 6 -66 4 -78 2 -103 -17z"/>
</g>
</svg>
